<?xml version="1.0" encoding="utf-8"?>
<!-- Generator: Adobe Illustrator 22.0.1, SVG Export Plug-In . SVG Version: 6.00 Build 0)  -->
<svg version="1.1" xmlns="http://www.w3.org/2000/svg" xmlns:xlink="http://www.w3.org/1999/xlink" x="0px" y="0px"
	 viewBox="0 0 255.2 255.2" style="enable-background:new 0 0 255.2 255.2;" xml:space="preserve">
<style type="text/css">
	.st0{fill:#FFFF00;}
</style>
<g id="Camada_2">
	<circle class="st0" cx="126.3" cy="129.1" r="126.1"/>
</g>
<g id="Capa_1">
	<path d="M232.6,55.1c-19.4-28-48.5-46.9-82-53C142.9,0.7,135.2,0,127.5,0C65.9,0,13.2,44,2.1,104.6
		c-12.7,69.2,33.3,135.8,102.5,148.5c7.6,1.4,15.4,2.1,23.1,2.1c0,0,0,0,0,0c61.5,0,114.3-44,125.4-104.6
		C259.2,117.1,252,83.2,232.6,55.1z M14.9,107c2-11.2,5.7-21.7,10.6-31.4c2.2,18.5,8.8,34.3,14.9,48.7c7,16.6,13.6,32.3,12.7,49.7
		c-0.6,12-2.7,23.8-6.1,35.1C21.1,183.3,7.8,145.6,14.9,107z M127.7,242.2c-6.9,0-13.9-0.6-20.8-1.9c-18.6-3.4-35.3-11.1-49.2-21.9
		c4.8-14,7.6-28.7,8.4-43.7c1.1-20.3-6.5-38.2-13.8-55.4c-8-19-16.3-38.7-14.3-63.2C59.2,29.6,91.7,13,127.5,13
		c6.9,0,13.9,0.6,20.8,1.9c30.1,5.5,56.3,22.4,73.7,47.6c2.7,4,5.2,8.1,7.4,12.3c0,13.7-20.3,26.1-34.5,30.2
		c-65.7,19.2-80.6,61.1-81.6,93c-0.5,16,6.1,32.4,14.7,44.2C127.9,242.2,127.8,242.2,127.7,242.2z M240.3,148.2
		c-9,49.1-48.3,86-96.4,92.8c-9.2-9.3-18.1-26.6-17.6-42.7c1.2-40,25.5-67.2,72.2-80.9c13.5-3.9,24.9-10.5,32.9-19.1
		c2-2.1,3.7-4.3,5.1-6.5C242.4,109.9,243.8,129.1,240.3,148.2z"/>
</g>
</svg>
